<svg width="200" height="200" viewBox="0 0 200 200" fill="none" xmlns="http://www.w3.org/2000/svg">
<g id="No albums">
<g id="Background">
<circle id="Ellipse 6" cx="99.6786" cy="101.25" r="62.6786" fill="#F2F2F6"/>
<circle id="Ellipse 5" cx="53" cy="152.929" r="3.9287" fill="#F2F2F6"/>
<circle id="Ellipse 4" cx="147.608" cy="43.3929" r="7.32166" fill="#F2F2F6"/>
<circle id="Ellipse 3" cx="36.2506" cy="66.6071" r="6.96451" fill="#F2F2F6"/>
<circle id="Ellipse 2" cx="170.893" cy="134.822" r="6.96451" fill="#F2F2F6"/>
<circle id="Ellipse 1" cx="157.322" cy="142.679" r="3.39296" fill="#F2F2F6"/>
<path id="Star 2" d="M28.6513 110.579C28.7312 110.201 29.2702 110.201 29.3501 110.579L30.544 116.219C30.5731 116.357 30.6801 116.464 30.8174 116.494L36.3996 117.71C36.7744 117.792 36.7744 118.327 36.3996 118.408L30.8174 119.624C30.6801 119.654 30.5731 119.762 30.544 119.899L29.3501 125.54C29.2702 125.917 28.7312 125.917 28.6513 125.54L27.4574 119.899C27.4283 119.762 27.3213 119.654 27.184 119.624L21.6019 118.408C21.227 118.327 21.227 117.792 21.6019 117.71L27.184 116.494C27.3213 116.464 27.4283 116.357 27.4574 116.219L28.6513 110.579Z" fill="#8384A3"/>
<path id="Star 3" d="M165.766 90.5795C165.846 90.2019 166.385 90.2019 166.465 90.5795L167.162 93.8699C167.191 94.0074 167.298 94.115 167.435 94.1449L170.701 94.8564C171.076 94.9381 171.076 95.4727 170.701 95.5543L167.435 96.2658C167.298 96.2957 167.191 96.4033 167.162 96.5408L166.465 99.8313C166.385 100.209 165.846 100.209 165.766 99.8313L165.07 96.5408C165.041 96.4033 164.934 96.2957 164.796 96.2658L161.531 95.5543C161.156 95.4727 161.156 94.9381 161.531 94.8564L164.796 94.1449C164.934 94.115 165.041 94.0074 165.07 93.8699L165.766 90.5795Z" fill="#8384A3"/>
<path id="Star 4" d="M174.164 113.333L175.257 118.5L180.351 119.609L175.257 120.719L174.164 125.886L173.07 120.719L167.977 119.609L173.07 118.5L174.164 113.333Z" fill="white"/>
</g>
<g id="Group">
<path id="Vector" d="M143.356 138.415L154.927 81.4275C155.373 79.2389 153.707 77.1914 151.477 77.1914H147.616C146.114 90.5116 144.483 109.68 142.828 130.06L143.344 138.215V138.415H143.356Z" fill="#8384A3"/>
<path id="Vector_2" d="M142.91 131.554L143.33 66.0257C143.344 63.8065 141.549 62 139.33 62H56.1364C53.9092 62 52.1109 63.8192 52.1367 66.0463L52.8879 130.907L142.91 131.554Z" fill="white" stroke="#8384A3" stroke-width="1.4" stroke-linecap="round" stroke-linejoin="round"/>
<path id="Vector_3" d="M142.897 131.225C144.586 107.727 146.703 84.2575 148.618 68.1925C148.904 65.7978 147.04 63.6826 144.628 63.6826H143.355C142.886 85.7809 143.038 108.938 142.897 131.225Z" fill="#F2F2F6" stroke="#8384A3" stroke-width="1.4" stroke-linecap="round" stroke-linejoin="round"/>
<path id="Vector_4" d="M49.1797 138.415H143.344L139.19 73.0963C139.061 71.1313 137.395 69.6369 135.435 69.7545L115.461 70.8489C110.943 71.096 106.742 73.2729 103.913 76.8265L101.578 79.7682L49.4261 80.639C46.8326 80.686 44.8141 82.91 45.0136 85.5105L49.1679 138.426L49.1797 138.415Z" fill="#F2F2F6"/>
<path id="Vector_5" d="M49.168 138.356H142.934L138.803 73.3198C138.674 71.3664 137.007 69.8838 135.059 69.9897L115.168 71.0723C110.661 71.3194 106.484 73.4845 103.679 77.0263L101.355 79.9563L49.4262 80.8271C46.8444 80.8741 44.8376 83.0863 45.0371 85.675L49.1797 138.356H49.168Z" stroke="#8384A3" stroke-width="1.4" stroke-linecap="round" stroke-linejoin="round"/>
</g>
<path id="Star 1" d="M125.211 46.0491C125.003 46.005 125.003 45.7095 125.211 45.6655L128.341 44.9997C128.417 44.9837 128.476 44.9249 128.492 44.8495L129.166 41.7408C129.211 41.5348 129.505 41.5348 129.549 41.7408L130.223 44.8495C130.24 44.9249 130.299 44.9837 130.374 44.9997L133.505 45.6655C133.712 45.7095 133.712 46.005 133.505 46.0491L130.374 46.7148C130.299 46.7309 130.24 46.7897 130.223 46.8651L129.549 49.9737C129.505 50.1797 129.211 50.1797 129.166 49.9737L128.492 46.8651C128.476 46.7897 128.417 46.7309 128.341 46.7148L125.211 46.0491Z" fill="#8384A3"/>
</g>
</svg>
