<svg width="200" height="200" viewBox="0 0 200 200" fill="none" xmlns="http://www.w3.org/2000/svg">
<circle cx="99.6786" cy="101.25" r="62.6786" fill="#F2F2F6"/>
<circle cx="45" cy="58.9292" r="3.9287" fill="#F2F2F6"/>
<circle cx="146.608" cy="43.3929" r="7.32166" fill="#F2F2F6"/>
<circle cx="40.2506" cy="149.607" r="6.96451" fill="#F2F2F6"/>
<circle cx="170.893" cy="134.822" r="6.96451" fill="#F2F2F6"/>
<circle cx="157.322" cy="142.679" r="3.39296" fill="#F2F2F6"/>
<path d="M113.759 41.2629C113.552 41.2189 113.552 40.9234 113.759 40.8793L116.89 40.2136C116.965 40.1975 117.025 40.1387 117.041 40.0633L117.715 36.9547C117.76 36.7487 118.054 36.7487 118.098 36.9547L118.772 40.0633C118.789 40.1387 118.848 40.1975 118.923 40.2136L122.054 40.8793C122.261 40.9234 122.261 41.2189 122.054 41.2629L118.923 41.9287C118.848 41.9447 118.789 42.0035 118.772 42.0789L118.098 45.1876C118.054 45.3936 117.76 45.3936 117.715 45.1876L117.041 42.0789C117.025 42.0035 116.965 41.9447 116.89 41.9287L113.759 41.2629Z" fill="#7E809F"/>
<path d="M28.6513 110.579C28.7312 110.201 29.2702 110.201 29.3501 110.579L30.544 116.219C30.5731 116.357 30.6801 116.464 30.8174 116.494L36.3996 117.71C36.7744 117.792 36.7744 118.327 36.3996 118.408L30.8174 119.624C30.6801 119.654 30.5731 119.762 30.544 119.899L29.3501 125.54C29.2702 125.917 28.7312 125.917 28.6513 125.54L27.4574 119.899C27.4283 119.762 27.3213 119.654 27.184 119.624L21.6019 118.408C21.227 118.327 21.227 117.792 21.6019 117.71L27.184 116.494C27.3213 116.464 27.4283 116.357 27.4574 116.219L28.6513 110.579Z" fill="#7E809F"/>
<path d="M159.766 60.5795C159.846 60.2019 160.385 60.2019 160.465 60.5795L161.162 63.8699C161.191 64.0074 161.298 64.115 161.435 64.1449L164.701 64.8564C165.076 64.9381 165.076 65.4727 164.701 65.5543L161.435 66.2658C161.298 66.2957 161.191 66.4033 161.162 66.5408L160.465 69.8313C160.385 70.2089 159.846 70.2089 159.766 69.8313L159.07 66.5408C159.041 66.4033 158.934 66.2957 158.796 66.2658L155.531 65.5543C155.156 65.4727 155.156 64.9381 155.531 64.8564L158.796 64.1449C158.934 64.115 159.041 64.0074 159.07 63.8699L159.766 60.5795Z" fill="#7E809F"/>
<path d="M174.164 113.333L175.257 118.5L180.351 119.609L175.257 120.719L174.164 125.886L173.07 120.719L167.977 119.609L173.07 118.5L174.164 113.333Z" fill="white"/>
<rect x="99.3853" y="65.3346" width="64.3316" height="69.26" rx="3.73294" transform="rotate(10 99.3853 65.3346)" fill="white" stroke="#7E809F" stroke-width="1.4"/>
<rect x="102.461" y="69.7267" width="56.3704" height="49.1673" rx="3.73294" transform="rotate(10 102.461 69.7267)" fill="#F2F2F6" stroke="#F2F2F6" stroke-width="1.4"/>
<rect x="37.1891" y="76.5054" width="64.3316" height="69.26" rx="3.73294" transform="rotate(-10 37.1891 76.5054)" fill="white" stroke="#7E809F" stroke-width="1.4"/>
<rect x="41.5807" y="79.5811" width="56.3704" height="49.1673" rx="3.73294" transform="rotate(-10 41.5807 79.5811)" fill="#F2F2F6" stroke="#F2F2F6" stroke-width="1.4"/>
<rect x="63.59" y="59.6574" width="76.7336" height="82.6332" rx="4.33065" fill="white" stroke="#7E809F" stroke-width="1.4"/>
<rect x="68.1281" y="64.1955" width="67.2034" height="58.5809" rx="4.33065" fill="#F2F2F6" stroke="#7E809F" stroke-width="1.4"/>
<circle cx="110.36" cy="78.2064" r="5.30654" fill="white"/>
<path d="M117.085 89.0391C117.435 88.4879 118.24 88.4879 118.59 89.0391L130.128 107.207C130.505 107.801 130.079 108.576 129.376 108.576H106.299C105.596 108.576 105.17 107.801 105.547 107.207L117.085 89.0391Z" fill="#7E809F"/>
<path d="M90.3867 77.0551C90.7247 76.4805 91.5514 76.4682 91.9063 77.0326L110.966 107.342C111.338 107.934 110.912 108.705 110.213 108.705H73.3228C72.6349 108.705 72.2073 107.957 72.5562 107.364L90.3867 77.0551Z" fill="#BCBECD"/>
<path d="M90.7842 75.8605C90.9261 75.6134 91.2808 75.6082 91.4298 75.8511L96.537 84.1754C96.7499 84.5224 96.3353 84.9127 96.0017 84.6792L94.4536 83.5955C94.3206 83.5024 94.1429 83.5053 94.0131 83.6027L91.8062 85.2578C91.6974 85.3395 91.5529 85.3558 91.4285 85.3006L88.8582 84.1582C88.7601 84.1146 88.6481 84.1151 88.5504 84.1595L86.1891 85.2328C85.8571 85.3837 85.5267 85.0205 85.7082 84.7042L90.7842 75.8605Z" fill="white"/>
<path d="M118.223 87.7785C118.118 87.5952 117.855 87.5913 117.744 87.7715L113.955 93.9477C113.797 94.2052 114.105 94.4948 114.352 94.3215L115.487 93.5269C115.592 93.4534 115.734 93.4611 115.83 93.5455L117.448 94.9612C117.537 95.0386 117.664 95.0521 117.767 94.995L119.644 93.9523C119.721 93.9094 119.814 93.9057 119.894 93.9422L121.633 94.7323C121.879 94.8443 122.124 94.5747 121.989 94.3401L118.223 87.7785Z" fill="white"/>
<path d="M79.0039 111.974H96.612" stroke="#BCBECD" stroke-width="1.4" stroke-linecap="round"/>
<path d="M69.4287 108.572H134.786" stroke="#7E809F" stroke-width="1.42862" stroke-linecap="square"/>
<path d="M91.7861 114.748H103.125" stroke="#BCBECD" stroke-width="1.4" stroke-linecap="round"/>
<path d="M83.3457 114.868H90.0995" stroke="#BCBECD" stroke-width="1.4" stroke-linecap="round"/>
<path d="M114.219 112.215H119.766" stroke="#BCBECD" stroke-width="1.4" stroke-linecap="round"/>
</svg>
