<svg width="40" height="40" viewBox="0 0 40 40" fill="none" xmlns="http://www.w3.org/2000/svg">
<g id="ic-trash">
<path id="Vector" fill-rule="evenodd" clip-rule="evenodd" d="M27.5 7.46325V7.84158C29.665 8.03956 31.8212 8.32423 33.9633 8.69491C34.1251 8.72293 34.2797 8.78253 34.4184 8.87031C34.5572 8.95809 34.6772 9.07233 34.7718 9.20651C34.8663 9.34069 34.9335 9.49218 34.9696 9.65234C35.0056 9.81249 35.0097 9.97817 34.9817 10.1399C34.9537 10.3017 34.8941 10.4563 34.8063 10.595C34.7185 10.7337 34.6043 10.8538 34.4701 10.9483C34.3359 11.0429 34.1844 11.1101 34.0243 11.1461C33.8641 11.1821 33.6984 11.1863 33.5367 11.1582L33.1883 11.0999L31.5133 32.8832C31.4168 34.1392 30.8497 35.3125 29.9255 36.1684C29.0013 37.0243 27.788 37.4998 26.5283 37.4999H13.4733C12.2137 37.4998 11.0004 37.0243 10.0762 36.1684C9.15201 35.3125 8.58492 34.1392 8.48834 32.8832L6.81168 11.0999L6.46334 11.1582C6.3016 11.1863 6.13592 11.1821 5.97577 11.1461C5.81561 11.1101 5.66412 11.0429 5.52994 10.9483C5.25895 10.7574 5.07492 10.4666 5.01834 10.1399C4.96176 9.81325 5.03727 9.4775 5.22824 9.20651C5.41922 8.93552 5.71002 8.75149 6.03668 8.69491C8.17879 8.32379 10.335 8.03911 12.5 7.84158V7.46325C12.5 4.85658 14.5217 2.62991 17.1933 2.54491C19.0645 2.48503 20.9372 2.48503 22.8083 2.54491C25.48 2.62991 27.5 4.85658 27.5 7.46325ZM17.2733 5.04325C19.0912 4.98511 20.9105 4.98511 22.7283 5.04325C23.9833 5.08325 25 6.13991 25 7.46325V7.65158C21.6697 7.44933 18.3303 7.44933 15 7.65158V7.46325C15 6.13991 16.015 5.08325 17.2733 5.04325ZM16.6817 14.9516C16.6753 14.7874 16.6367 14.6261 16.568 14.4769C16.4993 14.3277 16.4019 14.1934 16.2814 14.0819C16.1608 13.9703 16.0195 13.8835 15.8654 13.8266C15.7113 13.7696 15.5475 13.7436 15.3833 13.7499C15.2192 13.7563 15.0579 13.7949 14.9087 13.8636C14.7594 13.9322 14.6252 14.0296 14.5136 14.1502C14.402 14.2708 14.3153 14.4121 14.2583 14.5662C14.2014 14.7203 14.1753 14.8841 14.1817 15.0482L14.76 30.0482C14.7728 30.3795 14.9167 30.6922 15.1601 30.9174C15.2805 31.0289 15.4218 31.1156 15.5758 31.1725C15.7298 31.2294 15.8935 31.2554 16.0575 31.2491C16.2216 31.2427 16.3827 31.2041 16.5319 31.1355C16.681 31.0669 16.8151 30.9695 16.9266 30.849C17.0382 30.7285 17.1248 30.5873 17.1818 30.4333C17.2387 30.2793 17.2647 30.1156 17.2583 29.9516L16.6817 14.9516ZM25.815 15.0482C25.8272 14.8809 25.8056 14.7129 25.7516 14.5541C25.6975 14.3953 25.612 14.249 25.5001 14.124C25.3883 13.9989 25.2525 13.8977 25.1007 13.8262C24.9489 13.7548 24.7843 13.7146 24.6167 13.7081C24.4491 13.7016 24.2819 13.729 24.125 13.7884C23.9682 13.8479 23.8249 13.9384 23.7037 14.0544C23.5826 14.1705 23.486 14.3097 23.4198 14.4638C23.3536 14.6179 23.3191 14.7838 23.3183 14.9516L22.74 29.9516C22.7272 30.2831 22.8466 30.6061 23.0719 30.8496C23.2973 31.0931 23.6102 31.2371 23.9417 31.2499C24.2732 31.2627 24.5962 31.1433 24.8397 30.918C25.0832 30.6926 25.2272 30.3798 25.24 30.0482L25.815 15.0482Z" fill="#313265"/>
</g>
</svg>
