<svg width="24" height="24" viewBox="0 0 24 24" fill="none" xmlns="http://www.w3.org/2000/svg">
<path d="M21 9.6V20.4C21 20.5591 20.9368 20.7117 20.8243 20.8243C20.7117 20.9368 20.5591 21 20.4 21H9.6C9.44087 21 9.28826 20.9368 9.17574 20.8243C9.06321 20.7117 9 20.5591 9 20.4V9.6C9 9.44087 9.06321 9.28826 9.17574 9.17574C9.28826 9.06321 9.44087 9 9.6 9H20.4C20.5591 9 20.7117 9.06321 20.8243 9.17574C20.9368 9.28826 21 9.44087 21 9.6Z" stroke="#0D0D0D" stroke-width="2" stroke-linecap="round" stroke-linejoin="round"/>
<path d="M15 3.6V14.4C15 14.5591 14.9368 14.7117 14.8243 14.8243C14.7117 14.9368 14.5591 15 14.4 15H3.6C3.44087 15 3.28826 14.9368 3.17574 14.8243C3.06321 14.7117 3 14.5591 3 14.4V3.6C3 3.44087 3.06321 3.28826 3.17574 3.17574C3.28826 3.06321 3.44087 3 3.6 3H14.4C14.5591 3 14.7117 3.06321 14.8243 3.17574C14.9368 3.28826 15 3.44087 15 3.6Z" stroke="#0D0D0D" stroke-width="2" stroke-linecap="round" stroke-linejoin="round"/>
</svg>
