<svg width="48" height="48" viewBox="0 0 48 48" fill="none" xmlns="http://www.w3.org/2000/svg">
<circle cx="24" cy="24" r="24" fill="#EAEAF0"/>
<path d="M20.0001 26.571L18.1771 24.835C18.0249 24.6901 17.8449 24.5775 17.6481 24.504C17.4512 24.4305 17.2415 24.3976 17.0316 24.4072C16.8217 24.4168 16.6159 24.4688 16.4266 24.56C16.2373 24.6512 16.0684 24.7798 15.9301 24.938C15.6752 25.2289 15.5377 25.6041 15.5442 25.9907C15.5506 26.3774 15.7007 26.7478 15.9651 27.03L21.9071 33.368C22.2861 33.771 22.8131 34 23.3661 34H28.0001C30.4001 34 32.0001 32 32.0001 30V21.429" stroke="#313265" stroke-width="2" stroke-linecap="round" stroke-linejoin="round"/>
<path d="M29.0001 22V21.429C29.0001 19.143 32.0001 19.143 32.0001 21.429M26.0001 22V20.286C26.0001 18 29.0001 18 29.0001 20.286V22M23.0001 22V19.5C23.0001 17.214 26.0001 17.214 26.0001 19.5V22M20.0001 26.571L20.0001 15.5C20.0001 15.1022 20.1581 14.7206 20.4394 14.4393C20.7207 14.158 21.1023 14 21.5001 14C22.3281 14 23.0001 14.67 23.0001 15.499V22" stroke="#313265" stroke-width="2" stroke-linecap="round" stroke-linejoin="round"/>
</svg>
