<svg width="24" height="24" viewBox="0 0 24 24" fill="none" xmlns="http://www.w3.org/2000/svg">
<path d="M8.00008 14.571L6.17708 12.835C6.02486 12.6901 5.84492 12.5775 5.64806 12.504C5.45121 12.4305 5.24152 12.3976 5.0316 12.4072C4.82169 12.4168 4.61589 12.4688 4.42659 12.56C4.23729 12.6512 4.0684 12.7798 3.93008 12.938C3.67525 13.2289 3.53769 13.6041 3.54416 13.9907C3.55063 14.3774 3.70066 14.7478 3.96508 15.03L9.90708 21.368C10.2861 21.771 10.8131 22 11.3661 22H16.0001C18.4001 22 20.0001 20 20.0001 18V9.429" stroke="#0D0D0D" stroke-width="2" stroke-linecap="round" stroke-linejoin="round"/>
<path d="M17.0001 10V9.429C17.0001 7.143 20.0001 7.143 20.0001 9.429M14.0001 10V8.286C14.0001 6 17.0001 6 17.0001 8.286V10M11.0001 10V7.5C11.0001 5.214 14.0001 5.214 14.0001 7.5V10M8.00008 14.571L8.00008 3.5C8.00008 3.10218 8.15811 2.72064 8.43942 2.43934C8.72072 2.15804 9.10225 2 9.50008 2C10.3281 2 11.0001 2.67 11.0001 3.499V10" stroke="#0D0D0D" stroke-width="2" stroke-linecap="round" stroke-linejoin="round"/>
</svg>
