<svg width="24" height="24" viewBox="0 0 24 24" fill="none" xmlns="http://www.w3.org/2000/svg">
<path d="M7.21693 10.907C6.97479 10.4713 6.59484 10.1284 6.1367 9.93199C5.67857 9.73561 5.16819 9.69692 4.68568 9.82199C4.20318 9.94706 3.77586 10.2288 3.47081 10.623C3.16576 11.0172 3.00024 11.5016 3.00024 12C3.00024 12.4985 3.16576 12.9828 3.47081 13.377C3.77586 13.7712 4.20318 14.053 4.68568 14.178C5.16819 14.3031 5.67857 14.2644 6.1367 14.068C6.59484 13.8716 6.97479 13.5287 7.21693 13.093M7.21693 10.907C7.39693 11.231 7.49993 11.603 7.49993 12C7.49993 12.397 7.39693 12.77 7.21693 13.093M7.21693 10.907L16.7829 5.59301M7.21693 13.093L16.7829 18.407M16.7829 5.59301C16.9232 5.85715 17.1147 6.09067 17.3462 6.27994C17.5778 6.4692 17.8448 6.6104 18.1315 6.69528C18.4183 6.78017 18.7191 6.80703 19.0164 6.7743C19.3137 6.74157 19.6014 6.64991 19.8629 6.50467C20.1243 6.35943 20.3541 6.16353 20.539 5.92842C20.7238 5.69331 20.8599 5.42372 20.9394 5.13539C21.0188 4.84707 21.0399 4.5458 21.0016 4.2492C20.9632 3.95261 20.8661 3.66664 20.7159 3.40801C20.42 2.89835 19.9359 2.52515 19.3677 2.36862C18.7996 2.2121 18.1926 2.28475 17.6775 2.57096C17.1623 2.85717 16.78 3.33409 16.6127 3.8992C16.4454 4.46431 16.5065 5.07249 16.7829 5.59301ZM16.7829 18.407C16.6394 18.6654 16.5482 18.9495 16.5144 19.2431C16.4807 19.5368 16.5051 19.8342 16.5863 20.1184C16.6675 20.4026 16.8039 20.668 16.9877 20.8995C17.1715 21.131 17.3991 21.324 17.6574 21.4675C17.9158 21.611 18.1999 21.7023 18.4936 21.736C18.7872 21.7697 19.0846 21.7453 19.3688 21.6641C19.653 21.5829 19.9184 21.4465 20.1499 21.2627C20.3814 21.079 20.5744 20.8514 20.7179 20.593C21.0078 20.0712 21.0785 19.4556 20.9145 18.8816C20.7505 18.3077 20.3652 17.8224 19.8434 17.5325C19.3216 17.2426 18.706 17.1719 18.1321 17.3359C17.5581 17.4999 17.0728 17.8852 16.7829 18.407Z" stroke="#0D0D0D" stroke-width="2" stroke-linecap="round" stroke-linejoin="round"/>
</svg>
